<svg width="200" height="200" viewBox="0 0 200 200" fill="none" xmlns="http://www.w3.org/2000/svg">
<rect width="200" height="200" rx="100" fill="#0436B6"/>
<path d="M79.4806 55C81.4802 55 83.3226 56.0845 84.2934 57.8329L91.0268 69.9622C91.9084 71.5503 91.95 73.4712 91.1375 75.0959L84.6506 88.0698C84.6506 88.0698 86.5305 97.7346 94.3979 105.602C102.266 113.469 111.898 115.317 111.898 115.317L124.87 108.831C126.495 108.018 128.418 108.06 130.006 108.943L142.17 115.706C143.917 116.677 145 118.519 145 120.517V134.481C145 141.593 138.395 146.729 131.657 144.455C117.818 139.786 96.3362 130.895 82.7207 117.279C69.1052 103.664 60.2142 82.1822 55.5447 68.3435C53.2712 61.6054 58.4074 55 65.5185 55H79.4806Z" fill="white"/>
</svg>
