<svg width="200" height="201" viewBox="0 0 200 201" fill="none" xmlns="http://www.w3.org/2000/svg">
<rect y="0.5" width="200" height="200" rx="100" fill="#0436B6"/>
<path d="M55 70.5V130.5H106.6C105.539 127.273 104.999 123.897 105 120.5H75C75 117.848 73.9464 115.304 72.0711 113.429C70.1957 111.554 67.6522 110.5 65 110.5V90.5C70.55 90.5 75 86.05 75 80.5H125C125 83.1522 126.054 85.6957 127.929 87.5711C129.804 89.4464 132.348 90.5 135 90.5V90.8C138.35 90.8 141.7 91.4 145 92.5V70.5H55ZM100 85.5C91.5 85.65 85 92 85 100.5C85 109 91.5 115.2 100 115.5C101.9 115.5 103.85 115.1 105.7 114.35C107.05 108.85 109.3 103.65 114.85 98.55C114.25 91.9 107.95 85.35 100 85.5ZM135 95.5L146.25 106.75L135 118V110.5C125.75 110.5 119.7 120.3 123.8 128.6L118.35 134.05C109.55 120.75 119.05 103 135 103V95.5ZM135 150.5L123.75 139.25L135 128V135.5C144.25 135.5 150.3 125.7 146.2 117.4L151.65 111.95C160.45 125.25 150.95 143 135 143V150.5Z" fill="white"/>
</svg>
