<svg width="200" height="200" viewBox="0 0 200 200" fill="none" xmlns="http://www.w3.org/2000/svg">
<rect width="200" height="200" rx="100" fill="#0436B6"/>
<path d="M123.542 111.735L132.292 102.882C127.986 98.6275 123.056 95.3677 117.5 93.1029C111.944 90.8382 106.111 89.7059 100 89.7059C93.8889 89.7059 88.0375 90.8561 82.4458 93.1565C76.8542 95.4569 71.9417 98.7675 67.7083 103.088L76.4583 111.735C79.5833 108.647 83.1778 106.263 87.2417 104.583C91.3056 102.903 95.5583 102.062 100 102.059C104.442 102.056 108.694 102.897 112.758 104.583C116.822 106.268 120.417 108.653 123.542 111.735ZM141.25 94.2353L150 85.5882C143.403 78.9314 135.781 73.8351 127.133 70.2994C118.486 66.7637 109.442 64.9973 100 65C90.5583 65.0027 81.5125 66.7706 72.8625 70.3035C64.2125 73.8365 56.5917 78.9314 50 85.5882L58.75 94.2353C64.2361 88.8137 70.5389 84.6453 77.6583 81.73C84.7778 78.8147 92.225 77.3557 100 77.3529C107.775 77.3502 115.224 78.8092 122.346 81.73C129.468 84.6508 135.769 88.8192 141.25 94.2353ZM100 135L114.688 120.382C112.743 118.461 110.503 116.985 107.967 115.956C105.431 114.926 102.775 114.412 100 114.412C97.225 114.412 94.5681 114.926 92.0292 115.956C89.4903 116.985 87.2514 118.461 85.3125 120.382L100 135Z" fill="white"/>
</svg>
