<svg width="100" height="101" viewBox="0 0 100 101" fill="none" xmlns="http://www.w3.org/2000/svg">
<rect y="0.5" width="100" height="100" rx="50" fill="#0436B6"/>
<path d="M51.0419 27.5833C50.8292 27.5834 50.6216 27.6485 50.4471 27.77C50.2725 27.8914 50.1393 28.0634 50.0653 28.2629L37.8217 51.4766C37.6126 51.8079 37.5012 52.1915 37.5002 52.5833C37.5002 53.1359 37.7197 53.6658 38.1104 54.0565C38.5011 54.4472 39.031 54.6667 39.5836 54.6667H50.0002V72.375C50.0002 72.6513 50.11 72.9162 50.3053 73.1116C50.5007 73.3069 50.7656 73.4167 51.0419 73.4167C51.2336 73.4169 51.4217 73.3642 51.5854 73.2644C51.749 73.1646 51.882 73.0216 51.9696 72.8511L64.3028 49.4624L64.2987 49.4583C64.4836 49.1422 64.5818 48.7829 64.5836 48.4167C64.5836 47.8641 64.3641 47.3342 63.9734 46.9435C63.5827 46.5528 63.0528 46.3333 62.5002 46.3333H52.0836V28.625C52.0836 28.3487 51.9738 28.0838 51.7785 27.8884C51.5831 27.6931 51.3182 27.5833 51.0419 27.5833ZM31.2299 31.7297C30.8154 31.7298 30.4105 31.8535 30.0667 32.085C29.7229 32.3164 29.456 32.6452 29.3 33.0292C29.1441 33.4132 29.1062 33.8349 29.1912 34.2406C29.2762 34.6462 29.4803 35.0173 29.7773 35.3063L33.9439 39.473C34.1359 39.6729 34.3658 39.8326 34.6203 39.9425C34.8747 40.0525 35.1485 40.1106 35.4257 40.1134C35.7028 40.1162 35.9778 40.0637 36.2344 39.9589C36.491 39.8542 36.7242 39.6993 36.9202 39.5033C37.1162 39.3073 37.2711 39.0741 37.3758 38.8175C37.4806 38.5609 37.5331 38.2859 37.5303 38.0088C37.5275 37.7316 37.4694 37.4578 37.3594 37.2034C37.2495 36.9489 37.0898 36.719 36.8899 36.527L32.7232 32.3604C32.5291 32.1608 32.2969 32.0021 32.0404 31.8938C31.7839 31.7855 31.5083 31.7297 31.2299 31.7297ZM68.7095 31.7297C68.1683 31.7458 67.6546 31.972 67.2773 32.3604L63.1106 36.527C62.9106 36.719 62.751 36.9489 62.641 37.2034C62.5311 37.4578 62.473 37.7316 62.4702 38.0088C62.4673 38.2859 62.5198 38.5609 62.6246 38.8175C62.7294 39.0741 62.8843 39.3073 63.0803 39.5033C63.2763 39.6993 63.5094 39.8542 63.7661 39.959C64.0227 40.0637 64.2976 40.1162 64.5748 40.1134C64.852 40.1106 65.1258 40.0525 65.3802 39.9425C65.6346 39.8326 65.8646 39.6729 66.0565 39.473L70.2232 35.3063C70.5243 35.0137 70.7299 34.6369 70.8131 34.2254C70.8964 33.8139 70.8534 33.3869 70.6897 33.0002C70.5261 32.6136 70.2495 32.2854 69.8962 32.0587C69.5428 31.832 69.1292 31.7173 68.7095 31.7297ZM35.3762 60.8963C34.835 60.9125 34.3213 61.1387 33.9439 61.527L29.7773 65.6937C29.5773 65.8857 29.4177 66.1156 29.3077 66.37C29.1977 66.6245 29.1396 66.8983 29.1368 67.1754C29.134 67.4526 29.1865 67.7276 29.2913 67.9842C29.3961 68.2408 29.551 68.4739 29.747 68.6699C29.943 68.8659 30.1761 69.0209 30.4327 69.1256C30.6893 69.2304 30.9643 69.2829 31.2415 69.2801C31.5186 69.2773 31.7924 69.2192 32.0469 69.1092C32.3013 68.9992 32.5312 68.8396 32.7232 68.6397L36.8899 64.473C37.1909 64.1804 37.3966 63.8036 37.4798 63.3921C37.5631 62.9806 37.52 62.5536 37.3564 62.1669C37.1928 61.7803 36.9162 61.4521 36.5628 61.2254C36.2095 60.9986 35.7959 60.8839 35.3762 60.8963ZM64.5632 60.8963C64.1488 60.8964 63.7438 61.0201 63.4 61.2516C63.0562 61.4831 62.7893 61.8119 62.6334 62.1958C62.4774 62.5798 62.4395 63.0016 62.5245 63.4072C62.6095 63.8129 62.8136 64.1839 63.1106 64.473L67.2773 68.6397C67.4692 68.8396 67.6992 68.9992 67.9536 69.1092C68.208 69.2192 68.4818 69.2773 68.759 69.2801C69.0362 69.2829 69.3111 69.2304 69.5678 69.1256C69.8244 69.0209 70.0575 68.8659 70.2535 68.6699C70.4495 68.4739 70.6044 68.2408 70.7092 67.9842C70.814 67.7276 70.8665 67.4526 70.8637 67.1755C70.8608 66.8983 70.8027 66.6245 70.6928 66.37C70.5828 66.1156 70.4232 65.8857 70.2232 65.6937L66.0565 61.527C65.8624 61.3274 65.6302 61.1688 65.3737 61.0605C65.1172 60.9522 64.8416 60.8963 64.5632 60.8963Z" fill="#F9F0F0"/>
</svg>
