<svg width="93" height="92" viewBox="0 0 93 92" fill="none" xmlns="http://www.w3.org/2000/svg">
<g filter="url(#filter0_d_1023_2042)">
<rect x="4.5" width="84" height="84" rx="42" fill="white" shape-rendering="crispEdges"/>
<path d="M22.7712 35.3175C24.3183 35.3185 25.8658 35.3378 27.4124 35.3089C28.0157 35.2976 28.1539 35.5636 28.1631 36.0995C28.1728 36.6619 27.9252 36.8017 27.4103 36.8041C25.2993 36.814 23.1866 36.7181 21.0776 36.8918C19.7447 37.0016 18.4522 37.2705 17.2567 37.8834C15.6005 38.7326 14.4837 39.9843 14.4393 41.9245C14.3941 43.8987 15.4504 45.2418 17.1413 46.1021C19.2852 47.1929 21.589 47.4258 23.9505 47.091C24.9029 46.956 25.2277 46.5129 25.2378 45.5447C25.2447 44.8873 25.2176 44.2291 25.2414 43.5725C25.2598 43.0648 25.0379 42.8704 24.5425 42.8795C23.7815 42.8935 23.0182 42.8459 22.2594 42.8875C21.646 42.9212 21.3783 42.7685 21.3854 42.0902C21.3921 41.4356 21.678 41.3384 22.2357 41.3426C24.6914 41.3613 27.1475 41.3299 29.6029 41.3601C30.1971 41.3674 30.4498 41.2313 30.5657 40.6029C31.0058 38.2167 32.5893 36.6711 34.782 35.9506C38.5539 34.7114 42.4318 34.6469 46.202 35.9751C50.6602 37.5458 52.0721 42.908 49.0076 46.2758C47.9345 47.4551 46.5539 48.15 45.014 48.4679C41.401 49.2138 37.8049 49.3056 34.3068 47.8906C33.2452 47.4612 32.3501 46.7895 31.6485 45.8779C31.5454 45.744 31.4303 45.5791 31.2463 45.5908C31.0631 45.6024 31.0449 45.7889 31.0491 45.9301C31.0957 47.4809 29.9908 48.0064 28.778 48.3974C28.2933 48.5537 27.7696 48.6525 27.2609 48.6643C23.7276 48.746 20.1885 48.9249 16.6707 48.4245C14.7911 48.1572 12.9633 47.6952 11.3277 46.6747C7.44821 44.2541 7.58541 39.4255 11.5864 37.2098C13.6706 36.0555 15.953 35.661 18.2808 35.4453C19.7729 35.307 21.2726 35.302 22.7712 35.3175ZM36.3452 41.5043C36.3436 43.317 36.6092 44.3275 37.2598 45.4576C38.7289 48.0091 41.6959 48.2025 43.4852 45.8666C43.8132 45.4384 43.942 44.9251 44.1616 44.4511C45.1511 42.3157 44.6088 39.1659 42.8996 37.566C41.4396 36.1993 39.4548 36.1997 38.0253 37.6013C36.8032 38.7996 36.3668 40.3142 36.3452 41.5043Z" fill="#DD0514"/>
<path d="M55.3742 48.7357C54.9327 48.7352 54.4878 48.7373 54.0506 48.6865C52.3907 48.4939 51.3995 47.4003 51.3951 45.7446C51.3869 42.6285 51.3933 39.5123 51.3983 36.3961C51.3997 35.4985 51.5747 35.321 52.4669 35.3156C53.7926 35.3077 55.1185 35.3055 56.4442 35.314C57.2484 35.3192 57.4435 35.5188 57.4514 36.3028C57.4574 36.9114 57.486 37.5222 57.4449 38.1281C57.4028 38.7483 57.6618 38.9221 58.2602 38.918C61.4273 38.8962 64.595 38.9343 67.7616 38.8901C68.6149 38.8781 69.1471 39.1341 69.6338 39.8499C71.1689 42.1081 72.7839 44.3131 74.3729 46.5352C74.8948 47.265 74.9377 47.2624 75.4953 46.5406C77.2848 44.2241 79.0706 41.9048 80.8612 39.5892C81.2997 39.0221 82.6779 38.6612 83.315 38.9508C83.7014 39.1264 83.3783 39.318 83.2788 39.4502C82.3256 40.7177 77.9298 46.3892 76.738 47.9961C76.3302 48.5459 75.8675 48.7599 75.1878 48.7552C71.7506 48.7314 58.5414 48.7395 55.3742 48.7357ZM63.5352 47.3007C65.1056 47.3007 66.676 47.302 68.2463 47.2986C68.4111 47.2983 68.6194 47.3491 68.7083 47.1636C68.7962 46.9803 68.6222 46.849 68.5251 46.7227C67.0081 44.7506 65.4819 42.7855 63.9674 40.8116C63.7251 40.4958 63.4437 40.3315 63.0363 40.3346C61.4167 40.347 59.7967 40.3589 58.1773 40.3393C57.5784 40.332 57.4318 40.5982 57.4419 41.142C57.4698 42.6503 57.4491 44.1594 57.4569 45.6681C57.4636 46.9678 57.7774 47.2875 59.1178 47.304C60.5901 47.3222 63.5352 47.3032 63.5352 47.3007Z" fill="#05893B"/>
</g>
<defs>
<filter id="filter0_d_1023_2042" x="0.5" y="0" width="92" height="92" filterUnits="userSpaceOnUse" color-interpolation-filters="sRGB">
<feFlood flood-opacity="0" result="BackgroundImageFix"/>
<feColorMatrix in="SourceAlpha" type="matrix" values="0 0 0 0 0 0 0 0 0 0 0 0 0 0 0 0 0 0 127 0" result="hardAlpha"/>
<feOffset dy="4"/>
<feGaussianBlur stdDeviation="2"/>
<feComposite in2="hardAlpha" operator="out"/>
<feColorMatrix type="matrix" values="0 0 0 0 0 0 0 0 0 0 0 0 0 0 0 0 0 0 0.25 0"/>
<feBlend mode="normal" in2="BackgroundImageFix" result="effect1_dropShadow_1023_2042"/>
<feBlend mode="normal" in="SourceGraphic" in2="effect1_dropShadow_1023_2042" result="shape"/>
</filter>
</defs>
</svg>
