<svg width="100" height="100" viewBox="0 0 100 100" fill="none" xmlns="http://www.w3.org/2000/svg">
<rect width="100" height="100" rx="50" fill="#0436B6"/>
<path d="M51.0419 27.0835C50.8292 27.0835 50.6216 27.1486 50.4471 27.2701C50.2725 27.3916 50.1393 27.5636 50.0653 27.763L37.8217 50.9767C37.6126 51.3081 37.5012 51.6917 37.5002 52.0835C37.5002 52.636 37.7197 53.1659 38.1104 53.5566C38.5011 53.9473 39.031 54.1668 39.5836 54.1668H50.0002V71.8752C50.0002 72.1514 50.11 72.4164 50.3053 72.6117C50.5007 72.8071 50.7656 72.9168 51.0419 72.9168C51.2336 72.9171 51.4217 72.8644 51.5854 72.7646C51.749 72.6648 51.882 72.5218 51.9696 72.3512L64.3028 48.9626L64.2987 48.9585C64.4836 48.6423 64.5818 48.2831 64.5836 47.9168C64.5836 47.3643 64.3641 46.8344 63.9734 46.4437C63.5827 46.053 63.0528 45.8335 62.5002 45.8335H52.0836V28.1252C52.0836 27.8489 51.9738 27.5839 51.7785 27.3886C51.5831 27.1932 51.3182 27.0835 51.0419 27.0835ZM31.2299 31.2298C30.8154 31.2299 30.4105 31.3536 30.0667 31.5851C29.7229 31.8166 29.456 32.1454 29.3 32.5293C29.1441 32.9133 29.1062 33.3351 29.1912 33.7407C29.2762 34.1464 29.4803 34.5174 29.7773 34.8065L33.9439 38.9731C34.1359 39.1731 34.3658 39.3327 34.6203 39.4427C34.8747 39.5527 35.1485 39.6107 35.4257 39.6136C35.7028 39.6164 35.9778 39.5639 36.2344 39.4591C36.491 39.3543 36.7242 39.1994 36.9202 39.0034C37.1162 38.8074 37.2711 38.5743 37.3758 38.3177C37.4806 38.061 37.5331 37.7861 37.5303 37.5089C37.5275 37.2318 37.4694 36.958 37.3594 36.7035C37.2495 36.4491 37.0898 36.2192 36.8899 36.0272L32.7232 31.8605C32.5291 31.6609 32.2969 31.5023 32.0404 31.394C31.7839 31.2857 31.5083 31.2298 31.2299 31.2298ZM68.7095 31.2298C68.1683 31.2459 67.6546 31.4722 67.2773 31.8605L63.1106 36.0272C62.9106 36.2192 62.751 36.4491 62.641 36.7035C62.5311 36.958 62.473 37.2318 62.4702 37.5089C62.4673 37.7861 62.5198 38.0611 62.6246 38.3177C62.7294 38.5743 62.8843 38.8074 63.0803 39.0034C63.2763 39.1994 63.5094 39.3543 63.7661 39.4591C64.0227 39.5639 64.2976 39.6164 64.5748 39.6136C64.852 39.6108 65.1258 39.5527 65.3802 39.4427C65.6346 39.3327 65.8646 39.1731 66.0565 38.9731L70.2232 34.8065C70.5243 34.5138 70.7299 34.1371 70.8131 33.7256C70.8964 33.3141 70.8534 32.887 70.6897 32.5004C70.5261 32.1138 70.2495 31.7856 69.8962 31.5589C69.5428 31.3321 69.1292 31.2174 68.7095 31.2298ZM35.3762 60.3965C34.835 60.4126 34.3213 60.6388 33.9439 61.0272L29.7773 65.1939C29.5773 65.3858 29.4177 65.6158 29.3077 65.8702C29.1977 66.1246 29.1396 66.3984 29.1368 66.6756C29.134 66.9528 29.1865 67.2277 29.2913 67.4843C29.3961 67.741 29.551 67.9741 29.747 68.1701C29.943 68.3661 30.1761 68.521 30.4327 68.6258C30.6893 68.7306 30.9643 68.7831 31.2415 68.7802C31.5186 68.7774 31.7924 68.7193 32.0469 68.6094C32.3013 68.4994 32.5312 68.3398 32.7232 68.1398L36.8899 63.9731C37.1909 63.6805 37.3966 63.3038 37.4798 62.8923C37.5631 62.4808 37.52 62.0537 37.3564 61.6671C37.1928 61.2804 36.9162 60.9523 36.5628 60.7255C36.2095 60.4988 35.7959 60.3841 35.3762 60.3965ZM64.5632 60.3965C64.1488 60.3966 63.7438 60.5203 63.4 60.7518C63.0562 60.9833 62.7893 61.312 62.6334 61.696C62.4774 62.08 62.4395 62.5018 62.5245 62.9074C62.6095 63.313 62.8136 63.6841 63.1106 63.9731L67.2773 68.1398C67.4692 68.3398 67.6992 68.4994 67.9536 68.6094C68.208 68.7193 68.4818 68.7774 68.759 68.7803C69.0362 68.7831 69.3111 68.7306 69.5678 68.6258C69.8244 68.521 70.0575 68.3661 70.2535 68.1701C70.4495 67.9741 70.6044 67.741 70.7092 67.4843C70.814 67.2277 70.8665 66.9528 70.8637 66.6756C70.8608 66.3984 70.8027 66.1246 70.6928 65.8702C70.5828 65.6158 70.4232 65.3858 70.2232 65.1939L66.0565 61.0272C65.8624 60.8276 65.6302 60.669 65.3737 60.5606C65.1172 60.4523 64.8416 60.3965 64.5632 60.3965Z" fill="#F9F0F0"/>
</svg>
