<svg width="200" height="201" viewBox="0 0 200 201" fill="none" xmlns="http://www.w3.org/2000/svg">
<rect y="0.5" width="200" height="200" rx="100" fill="#0436B6"/>
<path d="M140.5 123H59.5V69H140.5M140.5 60H59.5C57.1131 60 54.8239 60.9482 53.136 62.636C51.4482 64.3239 50.5 66.6131 50.5 69V123C50.5 125.387 51.4482 127.676 53.136 129.364C54.8239 131.052 57.1131 132 59.5 132H82V141H118V132H140.5C142.887 132 145.176 131.052 146.864 129.364C148.552 127.676 149.5 125.387 149.5 123V69C149.5 66.6131 148.552 64.3239 146.864 62.636C145.176 60.9482 142.887 60 140.5 60Z" fill="white"/>
</svg>
